<svg xmlns="http://www.w3.org/2000/svg" viewBox="0 0 1920 436" preserveAspectRatio="xMidYMid" width="1920" height="436" style="shape-rendering: auto; display: block; background: rgb(26, 27, 32);"><g data-idx="1"><path stroke-width="0.5" stroke-opacity="0" stroke="rgb(34, 221, 160)" fill="none" d="M 0 379.424 C 320 379.424 640 170.576 960 170.576 C 1280 170.576 1600 379.424 1920 379.424 C 2240 379.424 2560 170.576 2880 170.576 C 3200 170.576 3520 379.424 3840 379.424" data-idx="2" transform="matrix(1,0,0,1,-846.0037231445312,0)">
  
  
  
</path><path stroke-width="0.5" stroke-opacity="0" stroke="rgb(34, 223, 158)" fill="none" d="M 0 380.459 C 320 380.459 640 169.541 960 169.541 C 1280 169.541 1600 380.459 1920 380.459 C 2240 380.459 2560 169.541 2880 169.541 C 3200 169.541 3520 380.459 3840 380.459" data-idx="6" transform="matrix(1,0,0,1,-859.0595703125,0)">
  
  
  
</path><path stroke-width="0.5" stroke-opacity="0" stroke="rgb(33, 224, 157)" fill="none" d="M 0 381.35 C 320 381.35 640 168.65 960 168.65 C 1280 168.65 1600 381.35 1920 381.35 C 2240 381.35 2560 168.65 2880 168.65 C 3200 168.65 3520 381.35 3840 381.35" data-idx="10" transform="matrix(1,0,0,1,-872.1156616210938,0)">
  
  
  
</path><path stroke-width="0.5" stroke-opacity="0" stroke="rgb(33, 225, 156)" fill="none" d="M 0 382.103 C 320 382.103 640 167.897 960 167.897 C 1280 167.897 1600 382.103 1920 382.103 C 2240 382.103 2560 167.897 2880 167.897 C 3200 167.897 3520 382.103 3840 382.103" data-idx="14" transform="matrix(1,0,0,1,-885.1715087890625,0)">
  
  
  
</path><path stroke-width="0.5" stroke-opacity="0" stroke="rgb(33, 226, 155)" fill="none" d="M 0 382.724 C 320 382.724 640 167.276 960 167.276 C 1280 167.276 1600 382.724 1920 382.724 C 2240 382.724 2560 167.276 2880 167.276 C 3200 167.276 3520 382.724 3840 382.724" data-idx="18" transform="matrix(1,0,0,1,-898.2276000976562,0)">
  
  
  
</path><path stroke-width="0.5" stroke-opacity="0" stroke="rgb(33, 227, 154)" fill="none" d="M 0 383.216 C 320 383.216 640 166.784 960 166.784 C 1280 166.784 1600 383.216 1920 383.216 C 2240 383.216 2560 166.784 2880 166.784 C 3200 166.784 3520 383.216 3840 383.216" data-idx="22" transform="matrix(1,0,0,1,-911.2836303710938,0)">
  
  
  
</path><path stroke-width="0.5" stroke-opacity="0" stroke="rgb(33, 227, 154)" fill="none" d="M 0 383.585 C 320 383.585 640 166.415 960 166.415 C 1280 166.415 1600 383.585 1920 383.585 C 2240 383.585 2560 166.415 2880 166.415 C 3200 166.415 3520 383.585 3840 383.585" data-idx="26" transform="matrix(1,0,0,1,-924.3394775390625,0)">
  
  
  
</path><path stroke-width="0.5" stroke-opacity="0" stroke="rgb(33, 228, 153)" fill="none" d="M 0 383.835 C 320 383.835 640 166.165 960 166.165 C 1280 166.165 1600 383.835 1920 383.835 C 2240 383.835 2560 166.165 2880 166.165 C 3200 166.165 3520 383.835 3840 383.835" data-idx="30" transform="matrix(1,0,0,1,-937.3955688476562,0)">
  
  
  
</path><path stroke-width="0.5" stroke-opacity="0" stroke="rgb(33, 228, 153)" fill="none" d="M 0 383.971 C 320 383.971 640 166.029 960 166.029 C 1280 166.029 1600 383.971 1920 383.971 C 2240 383.971 2560 166.029 2880 166.029 C 3200 166.029 3520 383.971 3840 383.971" data-idx="34" transform="matrix(1,0,0,1,-950.4515991210938,0)">
  
  
  
</path><path stroke-width="0.5" stroke-opacity="0" stroke="rgb(33, 228, 153)" fill="none" d="M 0 383.996 C 320 383.996 640 166.004 960 166.004 C 1280 166.004 1600 383.996 1920 383.996 C 2240 383.996 2560 166.004 2880 166.004 C 3200 166.004 3520 383.996 3840 383.996" data-idx="38" transform="matrix(1,0,0,1,-963.5077514648438,0)">
  
  
  
</path><path stroke-width="0.5" stroke-opacity="0" stroke="rgb(33, 228, 153)" fill="none" d="M 0 383.912 C 320 383.912 640 166.088 960 166.088 C 1280 166.088 1600 383.912 1920 383.912 C 2240 383.912 2560 166.088 2880 166.088 C 3200 166.088 3520 383.912 3840 383.912" data-idx="42" transform="matrix(1,0,0,1,-976.5635986328125,0)">
  
  
  
</path><path stroke-width="0.5" stroke-opacity="0" stroke="rgb(34, 228, 153)" fill="none" d="M 0 383.716 C 320 383.716 640 166.284 960 166.284 C 1280 166.284 1600 383.716 1920 383.716 C 2240 383.716 2560 166.284 2880 166.284 C 3200 166.284 3520 383.716 3840 383.716" data-idx="46" transform="matrix(1,0,0,1,-989.61962890625,0)">
  
  
  
</path><path stroke-width="0.5" stroke-opacity="0" stroke="rgb(34, 228, 152)" fill="none" d="M 0 383.402 C 320 383.402 640 166.598 960 166.598 C 1280 166.598 1600 383.402 1920 383.402 C 2240 383.402 2560 166.598 2880 166.598 C 3200 166.598 3520 383.402 3840 383.402" data-idx="50" transform="matrix(1,0,0,1,-1002.6754760742188,0)">
  
  
  
</path><path stroke-width="0.5" stroke-opacity="0" stroke="rgb(35, 228, 152)" fill="none" d="M 0 382.967 C 320 382.967 640 167.033 960 167.033 C 1280 167.033 1600 382.967 1920 382.967 C 2240 382.967 2560 167.033 2880 167.033 C 3200 167.033 3520 382.967 3840 382.967" data-idx="54" transform="matrix(1,0,0,1,-1015.7315673828125,0)">
  
  
  
</path><path stroke-width="0.5" stroke-opacity="0" stroke="rgb(36, 229, 151)" fill="none" d="M 0 382.407 C 320 382.407 640 167.593 960 167.593 C 1280 167.593 1600 382.407 1920 382.407 C 2240 382.407 2560 167.593 2880 167.593 C 3200 167.593 3520 382.407 3840 382.407" data-idx="58" transform="matrix(1,0,0,1,-1028.7877197265625,0)">
  
  
  
</path><path stroke-width="0.5" stroke-opacity="0" stroke="rgb(37, 229, 150)" fill="none" d="M 0 381.715 C 320 381.715 640 168.285 960 168.285 C 1280 168.285 1600 381.715 1920 381.715 C 2240 381.715 2560 168.285 2880 168.285 C 3200 168.285 3520 381.715 3840 381.715" data-idx="62" transform="matrix(1,0,0,1,-1041.8436279296875,0)">
  
  
  
</path><path stroke-width="0.5" stroke-opacity="0" stroke="rgb(39, 229, 149)" fill="none" d="M 0 380.888 C 320 380.888 640 169.112 960 169.112 C 1280 169.112 1600 380.888 1920 380.888 C 2240 380.888 2560 169.112 2880 169.112 C 3200 169.112 3520 380.888 3840 380.888" data-idx="66" transform="matrix(1,0,0,1,-1054.8995361328125,0)">
  
  
  
</path><path stroke-width="0.5" stroke-opacity="0" stroke="rgb(41, 230, 148)" fill="none" d="M 0 379.921 C 320 379.921 640 170.079 960 170.079 C 1280 170.079 1600 379.921 1920 379.921 C 2240 379.921 2560 170.079 2880 170.079 C 3200 170.079 3520 379.921 3840 379.921" data-idx="70" transform="matrix(1,0,0,1,-1067.9556884765625,0)">
  
  
  
</path><path stroke-width="0.5" stroke-opacity="0" stroke="rgb(43, 230, 146)" fill="none" d="M 0 378.807 C 320 378.807 640 171.193 960 171.193 C 1280 171.193 1600 378.807 1920 378.807 C 2240 378.807 2560 171.193 2880 171.193 C 3200 171.193 3520 378.807 3840 378.807" data-idx="74" transform="matrix(1,0,0,1,-1081.01171875,0)">
  
  
  
</path><path stroke-width="0.5" stroke-opacity="0" stroke="rgb(46, 230, 144)" fill="none" d="M 0 377.541 C 320 377.541 640 172.459 960 172.459 C 1280 172.459 1600 377.541 1920 377.541 C 2240 377.541 2560 172.459 2880 172.459 C 3200 172.459 3520 377.541 3840 377.541" data-idx="78" transform="matrix(1,0,0,1,-1094.0675048828125,0)">
  
  
  
</path><path stroke-width="0.5" stroke-opacity="0" stroke="rgb(49, 231, 142)" fill="none" d="M 0 376.117 C 320 376.117 640 173.883 960 173.883 C 1280 173.883 1600 376.117 1920 376.117 C 2240 376.117 2560 173.883 2880 173.883 C 3200 173.883 3520 376.117 3840 376.117" data-idx="82" transform="matrix(1,0,0,1,-1107.1236572265625,0)">
  
  
  
</path><path stroke-width="0.5" stroke-opacity="0" stroke="rgb(52, 232, 140)" fill="none" d="M 0 374.53 C 320 374.53 640 175.47 960 175.47 C 1280 175.47 1600 374.53 1920 374.53 C 2240 374.53 2560 175.47 2880 175.47 C 3200 175.47 3520 374.53 3840 374.53" data-idx="86" transform="matrix(1,0,0,1,-1120.1796875,0)">
  
  
  
</path><path stroke-width="0.5" stroke-opacity="0" stroke="rgb(56, 232, 137)" fill="none" d="M 0 372.774 C 320 372.774 640 177.226 960 177.226 C 1280 177.226 1600 372.774 1920 372.774 C 2240 372.774 2560 177.226 2880 177.226 C 3200 177.226 3520 372.774 3840 372.774" data-idx="90" transform="matrix(1,0,0,1,-1133.235595703125,0)">
  
  
  
</path><path stroke-width="0.5" stroke-opacity="0" stroke="rgb(60, 233, 134)" fill="none" d="M 0 370.842 C 320 370.842 640 179.158 960 179.158 C 1280 179.158 1600 370.842 1920 370.842 C 2240 370.842 2560 179.158 2880 179.158 C 3200 179.158 3520 370.842 3840 370.842" data-idx="94" transform="matrix(1,0,0,1,-1146.2916259765625,0)">
  
  
  
</path><path stroke-width="0.5" stroke-opacity="0" stroke="rgb(65, 234, 131)" fill="none" d="M 0 368.728 C 320 368.728 640 181.272 960 181.272 C 1280 181.272 1600 368.728 1920 368.728 C 2240 368.728 2560 181.272 2880 181.272 C 3200 181.272 3520 368.728 3840 368.728" data-idx="98" transform="matrix(1,0,0,1,-1159.3475341796875,0)">
  
  
  
</path><path stroke-width="0.5" stroke-opacity="0" stroke="rgb(69, 235, 128)" fill="none" d="M 0 366.426 C 320 366.426 640 183.574 960 183.574 C 1280 183.574 1600 366.426 1920 366.426 C 2240 366.426 2560 183.574 2880 183.574 C 3200 183.574 3520 366.426 3840 366.426" data-idx="102" transform="matrix(1,0,0,1,-1172.403564453125,0)">
  
  
  
</path><path stroke-width="0.5" stroke-opacity="0" stroke="rgb(74, 236, 124)" fill="none" d="M 0 363.93 C 320 363.93 640 186.07 960 186.07 C 1280 186.07 1600 363.93 1920 363.93 C 2240 363.93 2560 186.07 2880 186.07 C 3200 186.07 3520 363.93 3840 363.93" data-idx="106" transform="matrix(1,0,0,1,-1185.459716796875,0)">
  
  
  
</path><path stroke-width="0.5" stroke-opacity="0" stroke="rgb(79, 237, 121)" fill="none" d="M 0 361.235 C 320 361.235 640 188.765 960 188.765 C 1280 188.765 1600 361.235 1920 361.235 C 2240 361.235 2560 188.765 2880 188.765 C 3200 188.765 3520 361.235 3840 361.235" data-idx="110" transform="matrix(1,0,0,1,-1198.5157470703125,0)">
  
  
  
</path><path stroke-width="0.5" stroke-opacity="0" stroke="rgb(85, 238, 117)" fill="none" d="M 0 358.334 C 320 358.334 640 191.666 960 191.666 C 1280 191.666 1600 358.334 1920 358.334 C 2240 358.334 2560 191.666 2880 191.666 C 3200 191.666 3520 358.334 3840 358.334" data-idx="114" transform="matrix(1,0,0,1,-1211.571533203125,0)">
  
  
  
</path><path stroke-width="0.5" stroke-opacity="0" stroke="rgb(90, 239, 114)" fill="none" d="M 0 355.223 C 320 355.223 640 194.777 960 194.777 C 1280 194.777 1600 355.223 1920 355.223 C 2240 355.223 2560 194.777 2880 194.777 C 3200 194.777 3520 355.223 3840 355.223" data-idx="118" transform="matrix(1,0,0,1,-1224.627685546875,0)">
  
  
  
</path><path stroke-width="0.5" stroke-opacity="0" stroke="rgb(94, 240, 111)" fill="none" d="M 0 351.897 C 320 351.897 640 198.103 960 198.103 C 1280 198.103 1600 351.897 1920 351.897 C 2240 351.897 2560 198.103 2880 198.103 C 3200 198.103 3520 351.897 3840 351.897" data-idx="122" transform="matrix(1,0,0,1,-1237.683837890625,0)">
  
  
  
</path><path stroke-width="0.5" stroke-opacity="0" stroke="rgb(99, 241, 107)" fill="none" d="M 0 348.352 C 320 348.352 640 201.648 960 201.648 C 1280 201.648 1600 348.352 1920 348.352 C 2240 348.352 2560 201.648 2880 201.648 C 3200 201.648 3520 348.352 3840 348.352" data-idx="126" transform="matrix(1,0,0,1,-1250.739501953125,0)">
  
  
  
</path><path stroke-width="0.5" stroke-opacity="0" stroke="rgb(103, 241, 105)" fill="none" d="M 0 344.586 C 320 344.586 640 205.414 960 205.414 C 1280 205.414 1600 344.586 1920 344.586 C 2240 344.586 2560 205.414 2880 205.414 C 3200 205.414 3520 344.586 3840 344.586" data-idx="130" transform="matrix(1,0,0,1,-1263.795654296875,0)">
  
  
  
</path><path stroke-width="0.5" stroke-opacity="0" stroke="rgb(107, 242, 102)" fill="none" d="M 0 340.598 C 320 340.598 640 209.402 960 209.402 C 1280 209.402 1600 340.598 1920 340.598 C 2240 340.598 2560 209.402 2880 209.402 C 3200 209.402 3520 340.598 3840 340.598" data-idx="134" transform="matrix(1,0,0,1,-1276.851806640625,0)">
  
  
  
</path><path stroke-width="0.5" stroke-opacity="0" stroke="rgb(110, 243, 99)" fill="none" d="M 0 336.388 C 320 336.388 640 213.612 960 213.612 C 1280 213.612 1600 336.388 1920 336.388 C 2240 336.388 2560 213.612 2880 213.612 C 3200 213.612 3520 336.388 3840 336.388" data-idx="138" transform="matrix(1,0,0,1,-1289.907470703125,0)">
  
  
  
</path><path stroke-width="0.5" stroke-opacity="0" stroke="rgb(114, 243, 97)" fill="none" d="M 0 331.958 C 320 331.958 640 218.042 960 218.042 C 1280 218.042 1600 331.958 1920 331.958 C 2240 331.958 2560 218.042 2880 218.042 C 3200 218.042 3520 331.958 3840 331.958" data-idx="142" transform="matrix(1,0,0,1,-1302.963623046875,0)">
  
  
  
</path><path stroke-width="0.5" stroke-opacity="0" stroke="rgb(116, 244, 95)" fill="none" d="M 0 327.313 C 320 327.313 640 222.687 960 222.687 C 1280 222.687 1600 327.313 1920 327.313 C 2240 327.313 2560 222.687 2880 222.687 C 3200 222.687 3520 327.313 3840 327.313" data-idx="146" transform="matrix(1,0,0,1,-1316.019775390625,0)">
  
  
  
</path><path stroke-width="0.5" stroke-opacity="0.02857142857142857" stroke="rgb(119, 244, 94)" fill="none" d="M 0 322.459 C 320 322.459 640 227.541 960 227.541 C 1280 227.541 1600 322.459 1920 322.459 C 2240 322.459 2560 227.541 2880 227.541 C 3200 227.541 3520 322.459 3840 322.459" data-idx="150" transform="matrix(1,0,0,1,-1329.07568359375,0)">
  
  
  
</path><path stroke-width="0.5" stroke-opacity="0.05714285714285714" stroke="rgb(121, 245, 92)" fill="none" d="M 0 317.406 C 320 317.406 640 232.594 960 232.594 C 1280 232.594 1600 317.406 1920 317.406 C 2240 317.406 2560 232.594 2880 232.594 C 3200 232.594 3520 317.406 3840 317.406" data-idx="154" transform="matrix(1,0,0,1,-1342.131591796875,0)">
  
  
  
</path><path stroke-width="0.5" stroke-opacity="0.08571428571428572" stroke="rgb(122, 245, 91)" fill="none" d="M 0 312.167 C 320 312.167 640 237.833 960 237.833 C 1280 237.833 1600 312.167 1920 312.167 C 2240 312.167 2560 237.833 2880 237.833 C 3200 237.833 3520 312.167 3840 312.167" data-idx="158" transform="matrix(1,0,0,1,-1355.187744140625,0)">
  
  
  
</path><path stroke-width="0.5" stroke-opacity="0.11428571428571428" stroke="rgb(124, 245, 90)" fill="none" d="M 0 306.759 C 320 306.759 640 243.241 960 243.241 C 1280 243.241 1600 306.759 1920 306.759 C 2240 306.759 2560 243.241 2880 243.241 C 3200 243.241 3520 306.759 3840 306.759" data-idx="162" transform="matrix(1,0,0,1,-1368.24365234375,0)">
  
  
  
</path><path stroke-width="0.5" stroke-opacity="0.14285714285714285" stroke="rgb(125, 246, 89)" fill="none" d="M 0 301.199 C 320 301.199 640 248.801 960 248.801 C 1280 248.801 1600 301.199 1920 301.199 C 2240 301.199 2560 248.801 2880 248.801 C 3200 248.801 3520 301.199 3840 301.199" data-idx="166" transform="matrix(1,0,0,1,-1381.2996826171875,0)">
  
  
  
</path><path stroke-width="0.5" stroke-opacity="0.17142857142857143" stroke="rgb(126, 246, 89)" fill="none" d="M 0 295.511 C 320 295.511 640 254.489 960 254.489 C 1280 254.489 1600 295.511 1920 295.511 C 2240 295.511 2560 254.489 2880 254.489 C 3200 254.489 3520 295.511 3840 295.511" data-idx="170" transform="matrix(1,0,0,1,-1394.355712890625,0)">
  
  
  
</path><path stroke-width="0.5" stroke-opacity="0.2" stroke="rgb(126, 246, 88)" fill="none" d="M 0 289.72 C 320 289.72 640 260.28 960 260.28 C 1280 260.28 1600 289.72 1920 289.72 C 2240 289.72 2560 260.28 2880 260.28 C 3200 260.28 3520 289.72 3840 289.72" data-idx="174" transform="matrix(1,0,0,1,-1407.41162109375,0)">
  
  
  
</path><path stroke-width="0.5" stroke-opacity="0.22857142857142856" stroke="rgb(127, 246, 88)" fill="none" d="M 0 283.854 C 320 283.854 640 266.146 960 266.146 C 1280 266.146 1600 283.854 1920 283.854 C 2240 283.854 2560 266.146 2880 266.146 C 3200 266.146 3520 283.854 3840 283.854" data-idx="178" transform="matrix(1,0,0,1,-1420.4676513671875,0)">
  
  
  
</path><path stroke-width="0.5" stroke-opacity="0.2571428571428571" stroke="rgb(127, 246, 88)" fill="none" d="M 0 277.941 C 320 277.941 640 272.059 960 272.059 C 1280 272.059 1600 277.941 1920 277.941 C 2240 277.941 2560 272.059 2880 272.059 C 3200 272.059 3520 277.941 3840 277.941" data-idx="182" transform="matrix(1,0,0,1,-1433.5238037109375,0)">
  
  
  
</path><path stroke-width="0.5" stroke-opacity="0.2857142857142857" stroke="rgb(127, 246, 88)" fill="none" d="M 0 272.012 C 320 272.012 640 277.988 960 277.988 C 1280 277.988 1600 272.012 1920 272.012 C 2240 272.012 2560 277.988 2880 277.988 C 3200 277.988 3520 272.012 3840 272.012" data-idx="186" transform="matrix(1,0,0,1,-1446.57958984375,0)">
  
  
  
</path><path stroke-width="0.5" stroke-opacity="0.3142857142857143" stroke="rgb(127, 246, 88)" fill="none" d="M 0 266.1 C 320 266.1 640 283.9 960 283.9 C 1280 283.9 1600 266.1 1920 266.1 C 2240 266.1 2560 283.9 2880 283.9 C 3200 283.9 3520 266.1 3840 266.1" data-idx="190" transform="matrix(1,0,0,1,-1459.6356201171875,0)">
  
  
  
</path><path stroke-width="0.5" stroke-opacity="0.34285714285714286" stroke="rgb(127, 245, 89)" fill="none" d="M 0 260.234 C 320 260.234 640 289.766 960 289.766 C 1280 289.766 1600 260.234 1920 260.234 C 2240 260.234 2560 289.766 2880 289.766 C 3200 289.766 3520 260.234 3840 260.234" data-idx="194" transform="matrix(1,0,0,1,-1472.6915283203125,0)">
  
  
  
</path><path stroke-width="0.5" stroke-opacity="0.37142857142857144" stroke="rgb(127, 244, 89)" fill="none" d="M 0 254.443 C 320 254.443 640 295.557 960 295.557 C 1280 295.557 1600 254.443 1920 254.443 C 2240 254.443 2560 295.557 2880 295.557 C 3200 295.557 3520 254.443 3840 254.443" data-idx="198" transform="matrix(1,0,0,1,-1485.7476806640625,0)">
  
  
  
</path><path stroke-width="0.5" stroke-opacity="0.4" stroke="rgb(126, 242, 90)" fill="none" d="M 0 248.756 C 320 248.756 640 301.244 960 301.244 C 1280 301.244 1600 248.756 1920 248.756 C 2240 248.756 2560 301.244 2880 301.244 C 3200 301.244 3520 248.756 3840 248.756" data-idx="202" transform="matrix(1,0,0,1,-1498.8035888671875,0)">
  
  
  
</path><path stroke-width="0.5" stroke-opacity="0.42857142857142855" stroke="rgb(126, 240, 92)" fill="none" d="M 0 243.198 C 320 243.198 640 306.802 960 306.802 C 1280 306.802 1600 243.198 1920 243.198 C 2240 243.198 2560 306.802 2880 306.802 C 3200 306.802 3520 243.198 3840 243.198" data-idx="206" transform="matrix(1,0,0,1,-1511.8597412109375,0)">
  
  
  
</path><path stroke-width="0.5" stroke-opacity="0.45714285714285713" stroke="rgb(126, 238, 93)" fill="none" d="M 0 237.79 C 320 237.79 640 312.21 960 312.21 C 1280 312.21 1600 237.791 1920 237.791 C 2240 237.791 2560 312.21 2880 312.21 C 3200 312.21 3520 237.791 3840 237.791" data-idx="210" transform="matrix(1,0,0,1,-1524.9156494140625,0)">
  
  
  
</path><path stroke-width="0.5" stroke-opacity="0.4857142857142857" stroke="rgb(125, 235, 95)" fill="none" d="M 0 232.553 C 320 232.553 640 317.447 960 317.447 C 1280 317.447 1600 232.553 1920 232.553 C 2240 232.553 2560 317.447 2880 317.447 C 3200 317.447 3520 232.553 3840 232.553" data-idx="214" transform="matrix(1,0,0,1,-1537.9716796875,0)">
  
  
  
</path><path stroke-width="0.5" stroke-opacity="0.5142857142857142" stroke="rgb(124, 231, 98)" fill="none" d="M 0 227.502 C 320 227.502 640 322.498 960 322.498 C 1280 322.498 1600 227.502 1920 227.502 C 2240 227.502 2560 322.498 2880 322.498 C 3200 322.498 3520 227.502 3840 227.502" data-idx="218" transform="matrix(1,0,0,1,-1551.0277099609375,0)">
  
  
  
</path><path stroke-width="0.5" stroke-opacity="0.5428571428571428" stroke="rgb(124, 227, 100)" fill="none" d="M 0 222.65 C 320 222.65 640 327.35 960 327.35 C 1280 327.35 1600 222.65 1920 222.65 C 2240 222.65 2560 327.35 2880 327.35 C 3200 327.35 3520 222.65 3840 222.65" data-idx="222" transform="matrix(1,0,0,1,-1564.0836181640625,0)">
  
  
  
</path><path stroke-width="0.5" stroke-opacity="0.5714285714285714" stroke="rgb(123, 223, 104)" fill="none" d="M 0 218.006 C 320 218.006 640 331.994 960 331.994 C 1280 331.994 1600 218.006 1920 218.006 C 2240 218.006 2560 331.994 2880 331.994 C 3200 331.994 3520 218.006 3840 218.006" data-idx="226" transform="matrix(1,0,0,1,-1577.1396484375,0)">
  
  
  
</path><path stroke-width="0.5" stroke-opacity="0.6" stroke="rgb(122, 217, 107)" fill="none" d="M 0 213.578 C 320 213.578 640 336.422 960 336.422 C 1280 336.422 1600 213.578 1920 213.578 C 2240 213.578 2560 336.422 2880 336.422 C 3200 336.422 3520 213.578 3840 213.578" data-idx="230" transform="matrix(1,0,0,1,-1590.1956787109375,0)">
  
  
  
</path><path stroke-width="0.5" stroke-opacity="0.6285714285714286" stroke="rgb(121, 211, 111)" fill="none" d="M 0 209.369 C 320 209.369 640 340.631 960 340.631 C 1280 340.631 1600 209.369 1920 209.369 C 2240 209.369 2560 340.631 2880 340.631 C 3200 340.631 3520 209.369 3840 209.369" data-idx="234" transform="matrix(1,0,0,1,-1603.2515869140625,0)">
  
  
  
</path><path stroke-width="0.5" stroke-opacity="0.6571428571428571" stroke="rgb(120, 204, 116)" fill="none" d="M 0 205.383 C 320 205.383 640 344.617 960 344.617 C 1280 344.617 1600 205.383 1920 205.383 C 2240 205.383 2560 344.617 2880 344.617 C 3200 344.617 3520 205.383 3840 205.383" data-idx="238" transform="matrix(1,0,0,1,-1616.3076171875,0)">
  
  
  
</path><path stroke-width="0.5" stroke-opacity="0.6857142857142857" stroke="rgb(118, 197, 121)" fill="none" d="M 0 201.619 C 320 201.619 640 348.381 960 348.381 C 1280 348.381 1600 201.619 1920 201.619 C 2240 201.619 2560 348.381 2880 348.381 C 3200 348.381 3520 201.619 3840 201.619" data-idx="242" transform="matrix(1,0,0,1,-1629.36376953125,0)">
  
  
  
</path><path stroke-width="0.5" stroke-opacity="0.7142857142857143" stroke="rgb(117, 189, 126)" fill="none" d="M 0 198.076 C 320 198.076 640 351.924 960 351.924 C 1280 351.924 1600 198.076 1920 198.076 C 2240 198.076 2560 351.924 2880 351.924 C 3200 351.924 3520 198.076 3840 198.076" data-idx="246" transform="matrix(1,0,0,1,-1642.4195556640625,0)">
  
  
  
</path><path stroke-width="0.5" stroke-opacity="0.7428571428571429" stroke="rgb(115, 181, 131)" fill="none" d="M 0 194.752 C 320 194.752 640 355.248 960 355.248 C 1280 355.248 1600 194.752 1920 194.752 C 2240 194.752 2560 355.248 2880 355.248 C 3200 355.248 3520 194.752 3840 194.752" data-idx="250" transform="matrix(1,0,0,1,-1655.4757080078125,0)">
  
  
  
</path><path stroke-width="0.5" stroke-opacity="0.7714285714285715" stroke="rgb(114, 172, 137)" fill="none" d="M 0 191.642 C 320 191.642 640 358.358 960 358.358 C 1280 358.358 1600 191.642 1920 191.642 C 2240 191.642 2560 358.358 2880 358.358 C 3200 358.358 3520 191.642 3840 191.642" data-idx="254" transform="matrix(1,0,0,1,-1668.53173828125,0)">
  
  
  
</path><path stroke-width="0.5" stroke-opacity="0.8" stroke="rgb(112, 163, 143)" fill="none" d="M 0 188.743 C 320 188.743 640 361.257 960 361.257 C 1280 361.257 1600 188.743 1920 188.743 C 2240 188.743 2560 361.257 2880 361.257 C 3200 361.257 3520 188.743 3840 188.743" data-idx="258" transform="matrix(1,0,0,1,-1681.587646484375,0)">
  
  
  
</path><path stroke-width="0.5" stroke-opacity="0.8285714285714286" stroke="rgb(111, 154, 149)" fill="none" d="M 0 186.049 C 320 186.049 640 363.951 960 363.951 C 1280 363.951 1600 186.049 1920 186.049 C 2240 186.049 2560 363.951 2880 363.951 C 3200 363.951 3520 186.049 3840 186.049" data-idx="262" transform="matrix(1,0,0,1,-1694.6436767578125,0)">
  
  
  
</path><path stroke-width="0.5" stroke-opacity="0.8571428571428571" stroke="rgb(109, 145, 155)" fill="none" d="M 0 183.555 C 320 183.555 640 366.445 960 366.445 C 1280 366.445 1600 183.555 1920 183.555 C 2240 183.555 2560 366.445 2880 366.445 C 3200 366.445 3520 183.555 3840 183.555" data-idx="266" transform="matrix(1,0,0,1,-1707.69970703125,0)">
  
  
  
</path><path stroke-width="0.5" stroke-opacity="0.8857142857142857" stroke="rgb(108, 137, 160)" fill="none" d="M 0 181.255 C 320 181.255 640 368.745 960 368.745 C 1280 368.745 1600 181.255 1920 181.255 C 2240 181.255 2560 368.745 2880 368.745 C 3200 368.745 3520 181.255 3840 181.255" data-idx="270" transform="matrix(1,0,0,1,-1720.755615234375,0)">
  
  
  
</path><path stroke-width="0.5" stroke-opacity="0.9142857142857143" stroke="rgb(106, 129, 166)" fill="none" d="M 0 179.142 C 320 179.142 640 370.858 960 370.858 C 1280 370.858 1600 179.142 1920 179.142 C 2240 179.142 2560 370.858 2880 370.858 C 3200 370.858 3520 179.142 3840 179.142" data-idx="274" transform="matrix(1,0,0,1,-1733.811767578125,0)">
  
  
  
</path><path stroke-width="0.5" stroke-opacity="0.9428571428571428" stroke="rgb(105, 122, 170)" fill="none" d="M 0 177.212 C 320 177.212 640 372.788 960 372.788 C 1280 372.788 1600 177.212 1920 177.212 C 2240 177.212 2560 372.788 2880 372.788 C 3200 372.788 3520 177.212 3840 177.212" data-idx="278" transform="matrix(1,0,0,1,-1746.86767578125,0)">
  
  
  
</path><path stroke-width="0.5" stroke-opacity="0.9714285714285714" stroke="rgb(104, 115, 175)" fill="none" d="M 0 175.457 C 320 175.457 640 374.543 960 374.543 C 1280 374.543 1600 175.457 1920 175.457 C 2240 175.457 2560 374.543 2880 374.543 C 3200 374.543 3520 175.457 3840 175.457" data-idx="282" transform="matrix(1,0,0,1,-1759.923583984375,0)">
  
  
  
</path><path stroke-width="0.5" stroke-opacity="1" stroke="rgb(103, 110, 179)" fill="none" d="M 0 173.871 C 320 173.871 640 376.129 960 376.129 C 1280 376.129 1600 173.871 1920 173.871 C 2240 173.871 2560 376.129 2880 376.129 C 3200 376.129 3520 173.871 3840 173.871" data-idx="286" transform="matrix(1,0,0,1,-1772.979736328125,0)">
  
  
  
</path><path stroke-width="0.5" stroke-opacity="1.0285714285714285" stroke="rgb(102, 104, 182)" fill="none" d="M 0 172.449 C 320 172.449 640 377.551 960 377.551 C 1280 377.551 1600 172.449 1920 172.449 C 2240 172.449 2560 377.551 2880 377.551 C 3200 377.551 3520 172.449 3840 172.449" data-idx="290" transform="matrix(1,0,0,1,-1786.0357666015625,0)">
  
  
  
</path><path stroke-width="0.5" stroke-opacity="1.0571428571428572" stroke="rgb(101, 100, 185)" fill="none" d="M 0 171.184 C 320 171.184 640 378.816 960 378.816 C 1280 378.816 1600 171.184 1920 171.184 C 2240 171.184 2560 378.816 2880 378.816 C 3200 378.816 3520 171.184 3840 171.184" data-idx="294" transform="matrix(1,0,0,1,-1799.091552734375,0)">
  
  
  
</path><path stroke-width="0.5" stroke-opacity="1.0857142857142856" stroke="rgb(100, 96, 188)" fill="none" d="M 0 170.071 C 320 170.071 640 379.929 960 379.929 C 1280 379.929 1600 170.071 1920 170.071 C 2240 170.071 2560 379.929 2880 379.929 C 3200 379.929 3520 170.071 3840 170.071" data-idx="298" transform="matrix(1,0,0,1,-1812.147705078125,0)">
  
  
  
</path><g data-idx="302"></g></g><text data-watermark="true" text-anchor="middle" dominant-baseline="middle" stroke-opacity="0.1" fill="black" fill-opacity="0.1" stroke="white" stroke-width="1" font-size="15.0" x="960.0" y="218.0" data-idx="303" style="opacity: 1; font-size: 15px;">LOADING.IO</text></svg>